<svg id="SvgjsSvg1006" width="885.8636474609375" height="1582.704574584961" xmlns="http://www.w3.org/2000/svg" version="1.1" xmlns:xlink="http://www.w3.org/1999/xlink" xmlns:svgjs="http://svgjs.com/svgjs"><defs id="SvgjsDefs1007"><marker id="SvgjsMarker1054" markerWidth="16" markerHeight="12" refX="16" refY="6" viewBox="0 0 16 12" orient="auto" markerUnits="userSpaceOnUse" stroke-dasharray="0,0"><path id="SvgjsPath1055" d="M0,2 L14,6 L0,11 L0,2" fill="#323232" stroke="#323232" stroke-width="2"></path></marker><marker id="SvgjsMarker1064" markerWidth="16" markerHeight="12" refX="16" refY="6" viewBox="0 0 16 12" orient="auto" markerUnits="userSpaceOnUse" stroke-dasharray="0,0"><path id="SvgjsPath1065" d="M0,2 L14,6 L0,11 L0,2" fill="#323232" stroke="#323232" stroke-width="2"></path></marker><marker id="SvgjsMarker1076" markerWidth="16" markerHeight="12" refX="16" refY="6" viewBox="0 0 16 12" orient="auto" markerUnits="userSpaceOnUse" stroke-dasharray="0,0"><path id="SvgjsPath1077" d="M0,2 L14,6 L0,11 L0,2" fill="#323232" stroke="#323232" stroke-width="2"></path></marker><marker id="SvgjsMarker1086" markerWidth="16" markerHeight="12" refX="16" refY="6" viewBox="0 0 16 12" orient="auto" markerUnits="userSpaceOnUse" stroke-dasharray="0,0"><path id="SvgjsPath1087" d="M0,2 L14,6 L0,11 L0,2" fill="#323232" stroke="#323232" stroke-width="2"></path></marker><marker id="SvgjsMarker1096" markerWidth="16" markerHeight="12" refX="16" refY="6" viewBox="0 0 16 12" orient="auto" markerUnits="userSpaceOnUse" stroke-dasharray="0,0"><path id="SvgjsPath1097" d="M0,2 L14,6 L0,11 L0,2" fill="#323232" stroke="#323232" stroke-width="2"></path></marker><marker id="SvgjsMarker1112" markerWidth="16" markerHeight="12" refX="16" refY="6" viewBox="0 0 16 12" orient="auto" markerUnits="userSpaceOnUse" stroke-dasharray="0,0"><path id="SvgjsPath1113" d="M0,2 L14,6 L0,11 L0,2" fill="#323232" stroke="#323232" stroke-width="2"></path></marker><marker id="SvgjsMarker1122" markerWidth="16" markerHeight="12" refX="16" refY="6" viewBox="0 0 16 12" orient="auto" markerUnits="userSpaceOnUse" stroke-dasharray="0,0"><path id="SvgjsPath1123" d="M0,2 L14,6 L0,11 L0,2" fill="#323232" stroke="#323232" stroke-width="2"></path></marker><marker id="SvgjsMarker1144" markerWidth="16" markerHeight="12" refX="16" refY="6" viewBox="0 0 16 12" orient="auto" markerUnits="userSpaceOnUse" stroke-dasharray="0,0"><path id="SvgjsPath1145" d="M0,2 L14,6 L0,11 L0,2" fill="#323232" stroke="#323232" stroke-width="2"></path></marker><marker id="SvgjsMarker1154" markerWidth="16" markerHeight="12" refX="16" refY="6" viewBox="0 0 16 12" orient="auto" markerUnits="userSpaceOnUse" stroke-dasharray="0,0"><path id="SvgjsPath1155" d="M0,2 L14,6 L0,11 L0,2" fill="#323232" stroke="#323232" stroke-width="2"></path></marker><marker id="SvgjsMarker1164" markerWidth="16" markerHeight="12" refX="16" refY="6" viewBox="0 0 16 12" orient="auto" markerUnits="userSpaceOnUse" stroke-dasharray="0,0"><path id="SvgjsPath1165" d="M0,2 L14,6 L0,11 L0,2" fill="#323232" stroke="#323232" stroke-width="2"></path></marker><marker id="SvgjsMarker1168" markerWidth="16" markerHeight="12" refX="16" refY="6" viewBox="0 0 16 12" orient="auto" markerUnits="userSpaceOnUse" stroke-dasharray="0,0"><path id="SvgjsPath1169" d="M0,2 L14,6 L0,11 L0,2" fill="#323232" stroke="#323232" stroke-width="2"></path></marker><marker id="SvgjsMarker1178" markerWidth="16" markerHeight="12" refX="16" refY="6" viewBox="0 0 16 12" orient="auto" markerUnits="userSpaceOnUse" stroke-dasharray="0,0"><path id="SvgjsPath1179" d="M0,2 L14,6 L0,11 L0,2" fill="#323232" stroke="#323232" stroke-width="2"></path></marker><marker id="SvgjsMarker1188" markerWidth="16" markerHeight="12" refX="16" refY="6" viewBox="0 0 16 12" orient="auto" markerUnits="userSpaceOnUse" stroke-dasharray="0,0"><path id="SvgjsPath1189" d="M0,2 L14,6 L0,11 L0,2" fill="#323232" stroke="#323232" stroke-width="2"></path></marker><marker id="SvgjsMarker1192" markerWidth="16" markerHeight="12" refX="16" refY="6" viewBox="0 0 16 12" orient="auto" markerUnits="userSpaceOnUse" stroke-dasharray="0,0"><path id="SvgjsPath1193" d="M0,2 L14,6 L0,11 L0,2" fill="#323232" stroke="#323232" stroke-width="2"></path></marker><marker id="SvgjsMarker1202" markerWidth="16" markerHeight="12" refX="16" refY="6" viewBox="0 0 16 12" orient="auto" markerUnits="userSpaceOnUse" stroke-dasharray="0,0"><path id="SvgjsPath1203" d="M0,2 L14,6 L0,11 L0,2" fill="#323232" stroke="#323232" stroke-width="2"></path></marker><marker id="SvgjsMarker1218" markerWidth="16" markerHeight="12" refX="16" refY="6" viewBox="0 0 16 12" orient="auto" markerUnits="userSpaceOnUse" stroke-dasharray="0,0"><path id="SvgjsPath1219" d="M0,2 L14,6 L0,11 L0,2" fill="#323232" stroke="#323232" stroke-width="2"></path></marker><marker id="SvgjsMarker1222" markerWidth="16" markerHeight="12" refX="16" refY="6" viewBox="0 0 16 12" orient="auto" markerUnits="userSpaceOnUse" stroke-dasharray="0,0"><path id="SvgjsPath1223" d="M0,2 L14,6 L0,11 L0,2" fill="#323232" stroke="#323232" stroke-width="2"></path></marker><marker id="SvgjsMarker1226" markerWidth="16" markerHeight="12" refX="16" refY="6" viewBox="0 0 16 12" orient="auto" markerUnits="userSpaceOnUse" stroke-dasharray="0,0"><path id="SvgjsPath1227" d="M0,2 L14,6 L0,11 L0,2" fill="#323232" stroke="#323232" stroke-width="2"></path></marker><marker id="SvgjsMarker1268" markerWidth="16" markerHeight="12" refX="16" refY="6" viewBox="0 0 16 12" orient="auto" markerUnits="userSpaceOnUse" stroke-dasharray="0,0"><path id="SvgjsPath1269" d="M0,2 L14,6 L0,11 L0,2" fill="#323232" stroke="#323232" stroke-width="2"></path></marker><marker id="SvgjsMarker1272" markerWidth="16" markerHeight="12" refX="16" refY="6" viewBox="0 0 16 12" orient="auto" markerUnits="userSpaceOnUse" stroke-dasharray="0,0"><path id="SvgjsPath1273" d="M0,2 L14,6 L0,11 L0,2" fill="#323232" stroke="#323232" stroke-width="2"></path></marker><marker id="SvgjsMarker1276" markerWidth="16" markerHeight="12" refX="16" refY="6" viewBox="0 0 16 12" orient="auto" markerUnits="userSpaceOnUse" stroke-dasharray="0,0"><path id="SvgjsPath1277" d="M0,2 L14,6 L0,11 L0,2" fill="#323232" stroke="#323232" stroke-width="2"></path></marker><marker id="SvgjsMarker1280" markerWidth="16" markerHeight="12" refX="16" refY="6" viewBox="0 0 16 12" orient="auto" markerUnits="userSpaceOnUse" stroke-dasharray="0,0"><path id="SvgjsPath1281" d="M0,2 L14,6 L0,11 L0,2" fill="#323232" stroke="#323232" stroke-width="2"></path></marker><marker id="SvgjsMarker1284" markerWidth="16" markerHeight="12" refX="16" refY="6" viewBox="0 0 16 12" orient="auto" markerUnits="userSpaceOnUse" stroke-dasharray="0,0"><path id="SvgjsPath1285" d="M0,2 L14,6 L0,11 L0,2" fill="#323232" stroke="#323232" stroke-width="2"></path></marker><marker id="SvgjsMarker1288" markerWidth="16" markerHeight="12" refX="16" refY="6" viewBox="0 0 16 12" orient="auto" markerUnits="userSpaceOnUse" stroke-dasharray="0,0"><path id="SvgjsPath1289" d="M0,2 L14,6 L0,11 L0,2" fill="#323232" stroke="#323232" stroke-width="2"></path></marker><marker id="SvgjsMarker1298" markerWidth="16" markerHeight="12" refX="16" refY="6" viewBox="0 0 16 12" orient="auto" markerUnits="userSpaceOnUse" stroke-dasharray="0,0"><path id="SvgjsPath1299" d="M0,2 L14,6 L0,11 L0,2" fill="#323232" stroke="#323232" stroke-width="2"></path></marker><marker id="SvgjsMarker1302" markerWidth="16" markerHeight="12" refX="16" refY="6" viewBox="0 0 16 12" orient="auto" markerUnits="userSpaceOnUse" stroke-dasharray="0,0"><path id="SvgjsPath1303" d="M0,2 L14,6 L0,11 L0,2" fill="#323232" stroke="#323232" stroke-width="2"></path></marker><marker id="SvgjsMarker1312" markerWidth="16" markerHeight="12" refX="16" refY="6" viewBox="0 0 16 12" orient="auto" markerUnits="userSpaceOnUse" stroke-dasharray="0,0"><path id="SvgjsPath1313" d="M0,2 L14,6 L0,11 L0,2" fill="#323232" stroke="#323232" stroke-width="2"></path></marker><marker id="SvgjsMarker1334" markerWidth="16" markerHeight="12" refX="16" refY="6" viewBox="0 0 16 12" orient="auto" markerUnits="userSpaceOnUse" stroke-dasharray="0,0"><path id="SvgjsPath1335" d="M0,2 L14,6 L0,11 L0,2" fill="#323232" stroke="#323232" stroke-width="2"></path></marker><marker id="SvgjsMarker1338" markerWidth="16" markerHeight="12" refX="16" refY="6" viewBox="0 0 16 12" orient="auto" markerUnits="userSpaceOnUse" stroke-dasharray="0,0"><path id="SvgjsPath1339" d="M0,2 L14,6 L0,11 L0,2" fill="#323232" stroke="#323232" stroke-width="2"></path></marker><marker id="SvgjsMarker1360" markerWidth="16" markerHeight="12" refX="16" refY="6" viewBox="0 0 16 12" orient="auto" markerUnits="userSpaceOnUse" stroke-dasharray="0,0"><path id="SvgjsPath1361" d="M0,2 L14,6 L0,11 L0,2" fill="#323232" stroke="#323232" stroke-width="2"></path></marker><marker id="SvgjsMarker1370" markerWidth="16" markerHeight="12" refX="16" refY="6" viewBox="0 0 16 12" orient="auto" markerUnits="userSpaceOnUse" stroke-dasharray="0,0"><path id="SvgjsPath1371" d="M0,2 L14,6 L0,11 L0,2" fill="#323232" stroke="#323232" stroke-width="2"></path></marker><marker id="SvgjsMarker1380" markerWidth="16" markerHeight="12" refX="16" refY="6" viewBox="0 0 16 12" orient="auto" markerUnits="userSpaceOnUse" stroke-dasharray="0,0"><path id="SvgjsPath1381" d="M0,2 L14,6 L0,11 L0,2" fill="#323232" stroke="#323232" stroke-width="2"></path></marker></defs><g id="SvgjsG1008" transform="translate(281.7429704129314,25.001880258387075)"><path id="SvgjsPath1009" d="M 16.666666666666668 0L 83.33333333333333 0C 105.55555555555556 0 105.55555555555556 50 83.33333333333333 50L 16.666666666666668 50C -5.555555555555556 50 -5.555555555555556 0 16.666666666666668 0Z" stroke="rgba(50,50,50,1)" stroke-width="2" fill-opacity="1" fill="#ffffff"></path><g id="SvgjsG1010"><text id="SvgjsText1011" font-family="微软雅黑" text-anchor="middle" font-size="13px" width="80px" fill="#323232" font-weight="400" align="middle" anchor="middle" family="微软雅黑" size="13px" weight="400" font-style="" opacity="1" y="15.05" transform="rotate(0)"><tspan id="SvgjsTspan1012" dy="16" x="50"><tspan id="SvgjsTspan1013" style="text-decoration:;">打开App</tspan></tspan></text></g></g><g id="SvgjsG1014" transform="translate(251.84640523993255,201.44070287368015)"><path id="SvgjsPath1015" d="M 0 0L 159.8000030517578 0L 159.8000030517578 59.99999237060547L 0 59.99999237060547Z" stroke="rgba(50,50,50,1)" stroke-width="2" fill-opacity="1" fill="#ffffff"></path><g id="SvgjsG1016"><text id="SvgjsText1017" font-family="微软雅黑" text-anchor="middle" font-size="13px" width="140px" fill="#323232" font-weight="400" align="middle" anchor="middle" family="微软雅黑" size="13px" weight="400" font-style="" opacity="1" y="12.049996185302735" transform="rotate(0)"><tspan id="SvgjsTspan1018" dy="16" x="80"><tspan id="SvgjsTspan1019" style="text-decoration:;">点击导航栏图标上</tspan></tspan><tspan id="SvgjsTspan1020" dy="16" x="80"><tspan id="SvgjsTspan1021" style="text-decoration:;">的“个人”图标</tspan></tspan></text></g></g><g id="SvgjsG1022" transform="translate(251.82256901324206,415.29050367494597)"><path id="SvgjsPath1023" d="M 0 36.5L 79.9000015258789 0L 159.8000030517578 36.5L 79.9000015258789 73L 0 36.5Z" stroke="rgba(50,50,50,1)" stroke-width="2" fill-opacity="1" fill="#ffffff"></path><g id="SvgjsG1024"><text id="SvgjsText1025" font-family="微软雅黑" text-anchor="middle" font-size="13px" width="140px" fill="#323232" font-weight="400" align="middle" anchor="middle" family="微软雅黑" size="13px" weight="400" font-style="" opacity="1" y="26.55" transform="rotate(0)"><tspan id="SvgjsTspan1026" dy="16" x="80"><tspan id="SvgjsTspan1027" style="text-decoration:;">是否已注册？</tspan></tspan></text></g></g><g id="SvgjsG1028" transform="translate(148.68058816885332,575.1380828322547)"><path id="SvgjsPath1029" d="M 0 0L 160 0L 160 59.99999237060547L 0 59.99999237060547Z" stroke="rgba(50,50,50,1)" stroke-width="2" fill-opacity="1" fill="#ffffff"></path><g id="SvgjsG1030"><text id="SvgjsText1031" font-family="微软雅黑" text-anchor="middle" font-size="13px" width="140px" fill="#323232" font-weight="400" align="middle" anchor="middle" family="微软雅黑" size="13px" weight="400" font-style="" opacity="1" y="20.049996185302735" transform="rotate(0)"><tspan id="SvgjsTspan1032" dy="16" x="80"><tspan id="SvgjsTspan1033" style="text-decoration:;">证件信息登录</tspan></tspan></text></g></g><g id="SvgjsG1034" transform="translate(412.1336847019902,416.40161478605637)"><path id="SvgjsPath1035" d="M 0 0L 35 0L 35 35L 0 35Z" stroke="none" fill="none"></path><g id="SvgjsG1036"><text id="SvgjsText1037" font-family="微软雅黑" text-anchor="middle" font-size="13px" width="35px" fill="#323232" font-weight="400" align="middle" anchor="middle" family="微软雅黑" size="13px" weight="400" font-style="" opacity="1" y="7.55" transform="rotate(0)"><tspan id="SvgjsTspan1038" dy="16" x="17.5"><tspan id="SvgjsTspan1039" style="text-decoration:;">否</tspan></tspan></text></g></g><g id="SvgjsG1040" transform="translate(338.9303801513692,492.49340222567065)"><path id="SvgjsPath1041" d="M 0 0L 35 0L 35 35L 0 35Z" stroke="none" fill="none"></path><g id="SvgjsG1042"><text id="SvgjsText1043" font-family="微软雅黑" text-anchor="middle" font-size="13px" width="35px" fill="#323232" font-weight="400" align="middle" anchor="middle" family="微软雅黑" size="13px" weight="400" font-style="" opacity="1" y="7.55" transform="rotate(0)"><tspan id="SvgjsTspan1044" dy="16" x="17.5"><tspan id="SvgjsTspan1045" style="text-decoration:;">是</tspan></tspan></text></g></g><g id="SvgjsG1046" transform="translate(148.6784448218025,688.6151374863346)"><path id="SvgjsPath1047" d="M 19.99999745686849 0L 160 0L 140.0000025431315 59.99999237060547L 0 59.99999237060547L 19.99999745686849 0Z" stroke="rgba(50,50,50,1)" stroke-width="2" fill-opacity="1" fill="#ffffff"></path><g id="SvgjsG1048"><text id="SvgjsText1049" font-family="微软雅黑" text-anchor="middle" font-size="13px" width="112px" fill="#323232" font-weight="400" align="middle" anchor="middle" family="微软雅黑" size="13px" weight="400" font-style="" opacity="1" y="20.049996185302735" transform="rotate(0)"><tspan id="SvgjsTspan1050" dy="16" x="80"><tspan id="SvgjsTspan1051" style="text-decoration:;">输入证件号码</tspan></tspan></text></g></g><g id="SvgjsG1052"><path id="SvgjsPath1053" d="M228.60985771617862 634.0472164365337L228.60985771617862 661.3311769614343L228.67844482180277 661.3311769614343L228.67844482180277 688.6151374863346" stroke="#323232" stroke-width="2" fill="none" marker-end="url(#SvgjsMarker1054)"></path></g><g id="SvgjsG1056" transform="translate(148.68530353236497,796.5318041530013)"><path id="SvgjsPath1057" d="M 0 0L 160 0L 160 59.99999237060547L 0 59.99999237060547Z" stroke="rgba(50,50,50,1)" stroke-width="2" fill-opacity="1" fill="#ffffff"></path><g id="SvgjsG1058"><text id="SvgjsText1059" font-family="微软雅黑" text-anchor="middle" font-size="13px" width="140px" fill="#323232" font-weight="400" align="middle" anchor="middle" family="微软雅黑" size="13px" weight="400" font-style="" opacity="1" y="20.049996185302735" transform="rotate(0)"><tspan id="SvgjsTspan1060" dy="16" x="80"><tspan id="SvgjsTspan1061" style="text-decoration:;">刷脸验证</tspan></tspan></text></g></g><g id="SvgjsG1062"><path id="SvgjsPath1063" d="M228.67844482180277 748.6151298569403L228.67844482180277 772.5734670049708L228.68530353236525 772.5734670049708L228.68530353236525 796.5318041530013" stroke="#323232" stroke-width="2" fill="none" marker-end="url(#SvgjsMarker1064)"></path></g><g id="SvgjsG1066" transform="translate(670.9049358912208,513.9549379167179)"><path id="SvgjsPath1067" d="M 0 0L 159.8000030517578 0L 159.8000030517578 59.99999237060547L 0 59.99999237060547Z" stroke="rgba(50,50,50,1)" stroke-width="2" fill-opacity="1" fill="#ffffff"></path><g id="SvgjsG1068"><text id="SvgjsText1069" font-family="微软雅黑" text-anchor="middle" font-size="13px" width="140px" fill="#323232" font-weight="400" align="middle" anchor="middle" family="微软雅黑" size="13px" weight="400" font-style="" opacity="1" y="12.049996185302735" transform="rotate(0)"><tspan id="SvgjsTspan1070" dy="16" x="80"><tspan id="SvgjsTspan1071" style="text-decoration:;">选择注册证件（身份证/</tspan></tspan><tspan id="SvgjsTspan1072" dy="16" x="80"><tspan id="SvgjsTspan1073" style="text-decoration:;">护照/...）</tspan></tspan></text></g></g><g id="SvgjsG1074"><path id="SvgjsPath1075" d="M750.6620983364307 481.85696725674296L750.6620983364307 497.90595258673045L750.8049374170998 497.90595258673045L750.8049374170998 513.9549379167179" stroke="#323232" stroke-width="2" fill="none" marker-end="url(#SvgjsMarker1076)"></path></g><g id="SvgjsG1078" transform="translate(670.7523889703149,602.0575703381354)"><path id="SvgjsPath1079" d="M 19.99999745686849 0L 159.8000030517578 0L 139.8000055948893 59.99999237060547L 0 59.99999237060547L 19.99999745686849 0Z" stroke="rgba(50,50,50,1)" stroke-width="2" fill-opacity="1" fill="#ffffff"></path><g id="SvgjsG1080"><text id="SvgjsText1081" font-family="微软雅黑" text-anchor="middle" font-size="13px" width="112px" fill="#323232" font-weight="400" align="middle" anchor="middle" family="微软雅黑" size="13px" weight="400" font-style="" opacity="1" y="20.049996185302735" transform="rotate(0)"><tspan id="SvgjsTspan1082" dy="16" x="79.97000045776367"><tspan id="SvgjsTspan1083" style="text-decoration:;">输入证件号码</tspan></tspan></text></g></g><g id="SvgjsG1084"><path id="SvgjsPath1085" d="M750.8049374170998 573.9549302873236L750.8049374170998 588.0062503127294L750.6523904961939 588.0062503127294L750.6523904961939 602.0575703381354" stroke="#323232" stroke-width="2" fill="none" marker-end="url(#SvgjsMarker1086)"></path></g><g id="SvgjsG1088" transform="translate(670.5923033415016,691.5518858831989)"><path id="SvgjsPath1089" d="M 0 0L 159.8000030517578 0L 159.8000030517578 59.99999237060547L 0 59.99999237060547Z" stroke="rgba(50,50,50,1)" stroke-width="2" fill-opacity="1" fill="#ffffff"></path><g id="SvgjsG1090"><text id="SvgjsText1091" font-family="微软雅黑" text-anchor="middle" font-size="13px" width="140px" fill="#323232" font-weight="400" align="middle" anchor="middle" family="微软雅黑" size="13px" weight="400" font-style="" opacity="1" y="20.049996185302735" transform="rotate(0)"><tspan id="SvgjsTspan1092" dy="16" x="80"><tspan id="SvgjsTspan1093" style="text-decoration:;">刷脸验证</tspan></tspan></text></g></g><g id="SvgjsG1094"><path id="SvgjsPath1095" d="M750.6523904961939 662.0575627087411L750.6523904961939 676.80472429597L750.4923048673807 676.80472429597L750.4923048673807 691.5518858831989" stroke="#323232" stroke-width="2" fill="none" marker-end="url(#SvgjsMarker1096)"></path></g><g id="SvgjsG1098" transform="translate(670.4720977491646,979.8261653474722)"><path id="SvgjsPath1099" d="M 19.99999745686849 0L 159.8000030517578 0L 139.8000055948893 59.99999237060547L 0 59.99999237060547L 19.99999745686849 0Z" stroke="rgba(50,50,50,1)" stroke-width="2" fill-opacity="1" fill="#ffffff"></path><g id="SvgjsG1100"><text id="SvgjsText1101" font-family="微软雅黑" text-anchor="middle" font-size="13px" width="112px" fill="#323232" font-weight="400" align="middle" anchor="middle" family="微软雅黑" size="13px" weight="400" font-style="" opacity="1" y="20.049996185302735" transform="rotate(0)"><tspan id="SvgjsTspan1102" dy="16" x="79.97000045776367"><tspan id="SvgjsTspan1103" style="text-decoration:;">输入手机号码</tspan></tspan></text></g></g><g id="SvgjsG1104" transform="translate(670.8815373014874,775.2173651478898)"><path id="SvgjsPath1105" d="M 0 36.5L 79.9000015258789 0L 159.8000030517578 36.5L 79.9000015258789 73L 0 36.5Z" stroke="rgba(50,50,50,1)" stroke-width="2" fill-opacity="1" fill="#ffffff"></path><g id="SvgjsG1106"><text id="SvgjsText1107" font-family="微软雅黑" text-anchor="middle" font-size="13px" width="140px" fill="#323232" font-weight="400" align="middle" anchor="middle" family="微软雅黑" size="13px" weight="400" font-style="" opacity="1" y="26.55" transform="rotate(0)"><tspan id="SvgjsTspan1108" dy="16" x="80"><tspan id="SvgjsTspan1109" style="text-decoration:;">身份信息是否正确？</tspan></tspan></text></g></g><g id="SvgjsG1110"><path id="SvgjsPath1111" d="M750.4923048673807 751.5518782538046L750.4923048673807 763.3846217008471L750.7815388273661 763.3846217008471L750.7815388273661 775.2173651478898" stroke="#323232" stroke-width="2" fill="none" marker-end="url(#SvgjsMarker1112)"></path></g><g id="SvgjsG1114" transform="translate(753.6702024222614,845.6826429256674)"><path id="SvgjsPath1115" d="M 0 0L 35 0L 35 35L 0 35Z" stroke="none" fill="none"></path><g id="SvgjsG1116"><text id="SvgjsText1117" font-family="微软雅黑" text-anchor="middle" font-size="13px" width="35px" fill="#323232" font-weight="400" align="middle" anchor="middle" family="微软雅黑" size="13px" weight="400" font-style="" opacity="1" y="7.55" transform="rotate(0)"><tspan id="SvgjsTspan1118" dy="16" x="17.5"><tspan id="SvgjsTspan1119" style="text-decoration:;">是</tspan></tspan></text></g></g><g id="SvgjsG1120"><path id="SvgjsPath1121" d="M670.8815373014874 811.7173651478897L639.0538418030402 811.7173651478897L639.0538418030402 721.5518820685016L670.5923033415016 721.5518820685016" stroke="#323232" stroke-width="2" fill="none" marker-end="url(#SvgjsMarker1122)"></path></g><g id="SvgjsG1124" transform="translate(639.5860020174665,779.2395005645564)"><path id="SvgjsPath1125" d="M 0 0L 35 0L 35 35L 0 35Z" stroke="none" fill="none"></path><g id="SvgjsG1126"><text id="SvgjsText1127" font-family="微软雅黑" text-anchor="middle" font-size="13px" width="35px" fill="#323232" font-weight="400" align="middle" anchor="middle" family="微软雅黑" size="13px" weight="400" font-style="" opacity="1" y="7.55" transform="rotate(0)"><tspan id="SvgjsTspan1128" dy="16" x="17.5"><tspan id="SvgjsTspan1129" style="text-decoration:;">否</tspan></tspan></text></g></g><g id="SvgjsG1130" transform="translate(370.22604271430833,574.2271831303369)"><path id="SvgjsPath1131" d="M 0 0L 160 0L 160 59.99999237060547L 0 59.99999237060547Z" stroke="rgba(50,50,50,1)" stroke-width="2" fill-opacity="1" fill="#ffffff"></path><g id="SvgjsG1132"><text id="SvgjsText1133" font-family="微软雅黑" text-anchor="middle" font-size="13px" width="140px" fill="#323232" font-weight="400" align="middle" anchor="middle" family="微软雅黑" size="13px" weight="400" font-style="" opacity="1" y="20.049996185302735" transform="rotate(0)"><tspan id="SvgjsTspan1134" dy="16" x="80"><tspan id="SvgjsTspan1135" style="text-decoration:;">手机验证码登录</tspan></tspan></text></g></g><g id="SvgjsG1136" transform="translate(670.9304535559739,1070.3069345782415)"><path id="SvgjsPath1137" d="M 19.99999745686849 0L 159.8000030517578 0L 139.8000055948893 59.99999237060547L 0 59.99999237060547L 19.99999745686849 0Z" stroke="rgba(50,50,50,1)" stroke-width="2" fill-opacity="1" fill="#ffffff"></path><g id="SvgjsG1138"><text id="SvgjsText1139" font-family="微软雅黑" text-anchor="middle" font-size="13px" width="112px" fill="#323232" font-weight="400" align="middle" anchor="middle" family="微软雅黑" size="13px" weight="400" font-style="" opacity="1" y="20.049996185302735" transform="rotate(0)"><tspan id="SvgjsTspan1140" dy="16" x="79.97000045776367"><tspan id="SvgjsTspan1141" style="text-decoration:;">输入验证码</tspan></tspan></text></g></g><g id="SvgjsG1142"><path id="SvgjsPath1143" d="M750.3720992750436 1039.8261577180774L750.3720992750436 1055.0665461481594L750.8304550818527 1055.0665461481594L750.8304550818527 1070.3069345782415" stroke="#323232" stroke-width="2" fill="none" marker-end="url(#SvgjsMarker1144)"></path></g><g id="SvgjsG1146" transform="translate(670.7655788130104,1162.1801237434584)"><path id="SvgjsPath1147" d="M 0 36.5L 79.9000015258789 0L 159.8000030517578 36.5L 79.9000015258789 73L 0 36.5Z" stroke="rgba(50,50,50,1)" stroke-width="2" fill-opacity="1" fill="#ffffff"></path><g id="SvgjsG1148"><text id="SvgjsText1149" font-family="微软雅黑" text-anchor="middle" font-size="13px" width="140px" fill="#323232" font-weight="400" align="middle" anchor="middle" family="微软雅黑" size="13px" weight="400" font-style="" opacity="1" y="26.55" transform="rotate(0)"><tspan id="SvgjsTspan1150" dy="16" x="80"><tspan id="SvgjsTspan1151" style="text-decoration:;">验证码是否正确？</tspan></tspan></text></g></g><g id="SvgjsG1152"><path id="SvgjsPath1153" d="M670.7655788130104 1198.6801237434581L640.7655788130104 1198.6801237434581L640.7655788130104 1100.306930763544L680.930452284408 1100.306930763544" stroke="#323232" stroke-width="2" fill="none" marker-end="url(#SvgjsMarker1154)"></path></g><g id="SvgjsG1156" transform="translate(641.2557384168575,1166.8566448135343)"><path id="SvgjsPath1157" d="M 0 0L 35 0L 35 35L 0 35Z" stroke="none" fill="none"></path><g id="SvgjsG1158"><text id="SvgjsText1159" font-family="微软雅黑" text-anchor="middle" font-size="13px" width="35px" fill="#323232" font-weight="400" align="middle" anchor="middle" family="微软雅黑" size="13px" weight="400" font-style="" opacity="1" y="7.55" transform="rotate(0)"><tspan id="SvgjsTspan1160" dy="16" x="17.5"><tspan id="SvgjsTspan1161" style="text-decoration:;">否</tspan></tspan></text></g></g><g id="SvgjsG1162"><path id="SvgjsPath1163" d="M750.8304550818527 1130.3069269488462L750.8304550818527 1146.2435253461522L750.6655803388894 1146.2435253461522L750.6655803388894 1162.1801237434584" stroke="#323232" stroke-width="2" fill="none" marker-end="url(#SvgjsMarker1164)"></path></g><g id="SvgjsG1166"><path id="SvgjsPath1167" d="M450.2260427143083 634.2271755009422L450.2260427143083 660.7319850672268L450.362794954106 660.7319850672268L450.362794954106 687.2367946335114" stroke="#323232" stroke-width="2" fill="none" marker-end="url(#SvgjsMarker1168)"></path></g><g id="SvgjsG1170" transform="translate(148.91953226775126,897.6861022500691)"><path id="SvgjsPath1171" d="M 0 36.5L 79.9000015258789 0L 159.8000030517578 36.5L 79.9000015258789 73L 0 36.5Z" stroke="rgba(50,50,50,1)" stroke-width="2" fill-opacity="1" fill="#ffffff"></path><g id="SvgjsG1172"><text id="SvgjsText1173" font-family="微软雅黑" text-anchor="middle" font-size="13px" width="140px" fill="#323232" font-weight="400" align="middle" anchor="middle" family="微软雅黑" size="13px" weight="400" font-style="" opacity="1" y="26.55" transform="rotate(0)"><tspan id="SvgjsTspan1174" dy="16" x="80"><tspan id="SvgjsTspan1175" style="text-decoration:;">身份信息是否正确？</tspan></tspan></text></g></g><g id="SvgjsG1176"><path id="SvgjsPath1177" d="M228.68530353236525 856.531796523607L228.68530353236525 877.108949386838L228.81953379363046 877.108949386838L228.81953379363046 897.6861022500691" stroke="#323232" stroke-width="2" fill="none" marker-end="url(#SvgjsMarker1178)"></path></g><g id="SvgjsG1180" transform="translate(370.2107573694835,792.1743118066636)"><path id="SvgjsPath1181" d="M 0 36.5L 79.9000015258789 0L 159.8000030517578 36.5L 79.9000015258789 73L 0 36.5Z" stroke="rgba(50,50,50,1)" stroke-width="2" fill-opacity="1" fill="#ffffff"></path><g id="SvgjsG1182"><text id="SvgjsText1183" font-family="微软雅黑" text-anchor="middle" font-size="13px" width="140px" fill="#323232" font-weight="400" align="middle" anchor="middle" family="微软雅黑" size="13px" weight="400" font-style="" opacity="1" y="26.55" transform="rotate(0)"><tspan id="SvgjsTspan1184" dy="16" x="80"><tspan id="SvgjsTspan1185" style="text-decoration:;">验证码是否正确？</tspan></tspan></text></g></g><g id="SvgjsG1186"><path id="SvgjsPath1187" d="M450.362794954106 747.2367870041169L450.362794954106 769.7055494053902L450.1107588953623 769.7055494053902L450.1107588953623 792.1743118066636" stroke="#323232" stroke-width="2" fill="none" marker-end="url(#SvgjsMarker1188)"></path></g><g id="SvgjsG1190"><path id="SvgjsPath1191" d="M148.91953226775126 934.1861022500688L109.93530353236531 934.1861022500688L109.93530353236531 826.531800338304L148.68530353236497 826.531800338304" stroke="#323232" stroke-width="2" fill="none" marker-end="url(#SvgjsMarker1192)"></path></g><g id="SvgjsG1194" transform="translate(115.98154699328288,898.9461459088566)"><path id="SvgjsPath1195" d="M 0 0L 35 0L 35 35L 0 35Z" stroke="none" fill="none"></path><g id="SvgjsG1196"><text id="SvgjsText1197" font-family="微软雅黑" text-anchor="middle" font-size="13px" width="35px" fill="#323232" font-weight="400" align="middle" anchor="middle" family="微软雅黑" size="13px" weight="400" font-style="" opacity="1" y="7.55" transform="rotate(0)"><tspan id="SvgjsTspan1198" dy="16" x="17.5"><tspan id="SvgjsTspan1199" style="text-decoration:;">否</tspan></tspan></text></g></g><g id="SvgjsG1200"><path id="SvgjsPath1201" d="M530.010760421241 828.6743118066636L565.0107604212409 828.6743118066636L565.0107604212409 717.2367908188141L520.3627962256717 717.2367908188141" stroke="#323232" stroke-width="2" fill="none" marker-end="url(#SvgjsMarker1202)"></path></g><g id="SvgjsG1204" transform="translate(528.7770015387375,792.0488606455513)"><path id="SvgjsPath1205" d="M 0 0L 35 0L 35 35L 0 35Z" stroke="none" fill="none"></path><g id="SvgjsG1206"><text id="SvgjsText1207" font-family="微软雅黑" text-anchor="middle" font-size="13px" width="35px" fill="#323232" font-weight="400" align="middle" anchor="middle" family="微软雅黑" size="13px" weight="400" font-style="" opacity="1" y="7.55" transform="rotate(0)"><tspan id="SvgjsTspan1208" dy="16" x="17.5"><tspan id="SvgjsTspan1209" style="text-decoration:;">否</tspan></tspan></text></g></g><g id="SvgjsG1210" transform="translate(670.8607050964514,1264.2084497297558)"><path id="SvgjsPath1211" d="M 0 0L 159.8000030517578 0L 159.8000030517578 59.99999237060547L 0 59.99999237060547Z" stroke="rgba(50,50,50,1)" stroke-width="2" fill-opacity="1" fill="#ffffff"></path><g id="SvgjsG1212"><text id="SvgjsText1213" font-family="微软雅黑" text-anchor="middle" font-size="13px" width="140px" fill="#323232" font-weight="400" align="middle" anchor="middle" family="微软雅黑" size="13px" weight="400" font-style="" opacity="1" y="20.049996185302735" transform="rotate(0)"><tspan id="SvgjsTspan1214" dy="16" x="80"><tspan id="SvgjsTspan1215" style="text-decoration:;">注册完成，直接登录</tspan></tspan></text></g></g><g id="SvgjsG1216"><path id="SvgjsPath1217" d="M750.6655803388894 1235.180123743458L750.6655803388894 1249.694286736607L750.7607066223306 1249.694286736607L750.7607066223306 1264.2084497297558" stroke="#323232" stroke-width="2" fill="none" marker-end="url(#SvgjsMarker1218)"></path></g><g id="SvgjsG1220"><path id="SvgjsPath1221" d="M331.7225705391209 488.2905036749463L331.7225705391209 531.7142932536003L228.68058816885338 531.7142932536003L228.68058816885338 575.1380828322547" stroke="#323232" stroke-width="2" fill="none" marker-end="url(#SvgjsMarker1222)"></path></g><g id="SvgjsG1224"><path id="SvgjsPath1225" d="M331.7225705391209 488.2905036749463L332.6316614482121 488.2905036749463L332.6316614482121 531.4999104030642L450.22604271430873 531.4999104030642L450.22604271430873 574.2271831303369" stroke="#323232" stroke-width="2" fill="none" marker-end="url(#SvgjsMarker1226)"></path></g><g id="SvgjsG1228" transform="translate(231.39490987238497,976.6085315760818)"><path id="SvgjsPath1229" d="M 0 0L 35 0L 35 35L 0 35Z" stroke="none" fill="none"></path><g id="SvgjsG1230"><text id="SvgjsText1231" font-family="微软雅黑" text-anchor="middle" font-size="13px" width="35px" fill="#323232" font-weight="400" align="middle" anchor="middle" family="微软雅黑" size="13px" weight="400" font-style="" opacity="1" y="7.55" transform="rotate(0)"><tspan id="SvgjsTspan1232" dy="16" x="17.5"><tspan id="SvgjsTspan1233" style="text-decoration:;">是</tspan></tspan></text></g></g><g id="SvgjsG1234" transform="translate(450.55574903322486,871.0141259816769)"><path id="SvgjsPath1235" d="M 0 0L 35 0L 35 35L 0 35Z" stroke="none" fill="none"></path><g id="SvgjsG1236"><text id="SvgjsText1237" font-family="微软雅黑" text-anchor="middle" font-size="13px" width="35px" fill="#323232" font-weight="400" align="middle" anchor="middle" family="微软雅黑" size="13px" weight="400" font-style="" opacity="1" y="7.55" transform="rotate(0)"><tspan id="SvgjsTspan1238" dy="16" x="17.5"><tspan id="SvgjsTspan1239" style="text-decoration:;">是</tspan></tspan></text></g></g><g id="SvgjsG1240" transform="translate(753.7654353595683,1227.4067638471458)"><path id="SvgjsPath1241" d="M 0 0L 35 0L 35 35L 0 35Z" stroke="none" fill="none"></path><g id="SvgjsG1242"><text id="SvgjsText1243" font-family="微软雅黑" text-anchor="middle" font-size="13px" width="35px" fill="#323232" font-weight="400" align="middle" anchor="middle" family="微软雅黑" size="13px" weight="400" font-style="" opacity="1" y="7.55" transform="rotate(0)"><tspan id="SvgjsTspan1244" dy="16" x="17.5"><tspan id="SvgjsTspan1245" style="text-decoration:;">是</tspan></tspan></text></g></g><g id="SvgjsG1246" transform="translate(254.78156021685732,1381.2294594388895)"><path id="SvgjsPath1247" d="M 0 0L 160 0L 160 59.99999237060547L 0 59.99999237060547Z" stroke="rgba(50,50,50,1)" stroke-width="2" fill-opacity="1" fill="#ffffff"></path><g id="SvgjsG1248"><text id="SvgjsText1249" font-family="微软雅黑" text-anchor="middle" font-size="13px" width="140px" fill="#323232" font-weight="400" align="middle" anchor="middle" family="微软雅黑" size="13px" weight="400" font-style="" opacity="1" y="20.049996185302735" transform="rotate(0)"><tspan id="SvgjsTspan1250" dy="16" x="80"><tspan id="SvgjsTspan1251" style="text-decoration:;">登录成功</tspan></tspan></text></g></g><g id="SvgjsG1252" transform="translate(284.7812950325956,1507.7076907322812)"><path id="SvgjsPath1253" d="M 16.666666666666668 0L 83.33333333333333 0C 105.55555555555556 0 105.55555555555556 50 83.33333333333333 50L 16.666666666666668 50C -5.555555555555556 50 -5.555555555555556 0 16.666666666666668 0Z" stroke="rgba(50,50,50,1)" stroke-width="2" fill-opacity="1" fill="#ffffff"></path><g id="SvgjsG1254"><text id="SvgjsText1255" font-family="微软雅黑" text-anchor="middle" font-size="13px" width="80px" fill="#323232" font-weight="400" align="middle" anchor="middle" family="微软雅黑" size="13px" weight="400" font-style="" opacity="1" y="7.05" transform="rotate(0)"><tspan id="SvgjsTspan1256" dy="16" x="50"><tspan id="SvgjsTspan1257" style="text-decoration:;">进入个人空间</tspan></tspan><tspan id="SvgjsTspan1258" dy="16" x="50"><tspan id="SvgjsTspan1259" style="text-decoration:;">页面</tspan></tspan></text></g></g><g id="SvgjsG1260" transform="translate(251.84640523993255,108.77906385910022)"><path id="SvgjsPath1261" d="M 0 0L 159.8000030517578 0L 159.8000030517578 59.99999237060547L 0 59.99999237060547Z" stroke="rgba(50,50,50,1)" stroke-width="2" fill-opacity="1" fill="#ffffff"></path><g id="SvgjsG1262"><text id="SvgjsText1263" font-family="微软雅黑" text-anchor="middle" font-size="13px" width="140px" fill="#323232" font-weight="400" align="middle" anchor="middle" family="微软雅黑" size="13px" weight="400" font-style="" opacity="1" y="20.049996185302735" transform="rotate(0)"><tspan id="SvgjsTspan1264" dy="16" x="80"><tspan id="SvgjsTspan1265" style="text-decoration:;">进入首页</tspan></tspan></text></g></g><g id="SvgjsG1266"><path id="SvgjsPath1267" d="M331.7464067658114 168.7790562297056L331.7464067658114 185.10987955169293L331.7464067658114 185.10987955169293L331.7464067658114 201.44070287368015" stroke="#323232" stroke-width="2" fill="none" marker-end="url(#SvgjsMarker1268)"></path></g><g id="SvgjsG1270"><path id="SvgjsPath1271" d="M331.74297041293136 75.00188025838706L331.74297041293136 91.89047205874364L331.7464067658114 91.89047205874364L331.7464067658114 108.77906385910022" stroke="#323232" stroke-width="2" fill="none" marker-end="url(#SvgjsMarker1272)"></path></g><g id="SvgjsG1274"><path id="SvgjsPath1275" d="M334.781560216857 1441.229451809495L334.781560216857 1474.468571270888L334.7812950325955 1474.468571270888L334.7812950325955 1507.7076907322812" stroke="#323232" stroke-width="2" fill="none" marker-end="url(#SvgjsMarker1276)"></path></g><g id="SvgjsG1278"><path id="SvgjsPath1279" d="M750.7607066223302 1324.2084421003613L750.7607066223302 1352.7189507696253L334.781560216857 1352.7189507696253L334.781560216857 1381.2294594388895" stroke="#323232" stroke-width="2" fill="none" marker-end="url(#SvgjsMarker1280)"></path></g><g id="SvgjsG1282"><path id="SvgjsPath1283" d="M450.1107588953628 865.1743118066636L450.1107588953628 1175.7018856227758L334.781560216857 1175.7018856227758L334.781560216857 1381.2294594388895" stroke="#323232" stroke-width="2" fill="none" marker-end="url(#SvgjsMarker1284)"></path></g><g id="SvgjsG1286"><path id="SvgjsPath1287" d="M228.81953379363023 970.6861022500688L228.81953379363023 1175.9577808444785L334.781560216857 1175.9577808444785L334.781560216857 1381.2294594388895" stroke="#323232" stroke-width="2" fill="none" marker-end="url(#SvgjsMarker1288)"></path></g><g id="SvgjsG1290" transform="translate(251.9296623171807,300.7319897430574)"><path id="SvgjsPath1291" d="M 0 36.5L 79.9000015258789 0L 159.8000030517578 36.5L 79.9000015258789 73L 0 36.5Z" stroke="rgba(50,50,50,1)" stroke-width="2" fill-opacity="1" fill="#ffffff"></path><g id="SvgjsG1292"><text id="SvgjsText1293" font-family="微软雅黑" text-anchor="middle" font-size="13px" width="140px" fill="#323232" font-weight="400" align="middle" anchor="middle" family="微软雅黑" size="13px" weight="400" font-style="" opacity="1" y="26.55" transform="rotate(0)"><tspan id="SvgjsTspan1294" dy="16" x="80"><tspan id="SvgjsTspan1295" style="text-decoration:;">是否已登录？</tspan></tspan></text></g></g><g id="SvgjsG1296"><path id="SvgjsPath1297" d="M331.7464067658114 261.4406952442857L331.7464067658114 281.0863424936715L331.82966384305956 281.0863424936715L331.82966384305956 300.7319897430574" stroke="#323232" stroke-width="2" fill="none" marker-end="url(#SvgjsMarker1298)"></path></g><g id="SvgjsG1300"><path id="SvgjsPath1301" d="M331.82966384305956 373.73198974305745L331.82966384305956 394.51124670900157L331.7225705391209 394.51124670900157L331.7225705391209 415.29050367494597" stroke="#323232" stroke-width="2" fill="none" marker-end="url(#SvgjsMarker1302)"></path></g><g id="SvgjsG1304" transform="translate(338.8771997922172,373.73198820231806)"><path id="SvgjsPath1305" d="M 0 0L 35 0L 35 35L 0 35Z" stroke="none" fill="none"></path><g id="SvgjsG1306"><text id="SvgjsText1307" font-family="微软雅黑" text-anchor="middle" font-size="13px" width="35px" fill="#323232" font-weight="400" align="middle" anchor="middle" family="微软雅黑" size="13px" weight="400" font-style="" opacity="1" y="7.55" transform="rotate(0)"><tspan id="SvgjsTspan1308" dy="16" x="17.5"><tspan id="SvgjsTspan1309" style="text-decoration:;">否</tspan></tspan></text></g></g><g id="SvgjsG1310"><path id="SvgjsPath1311" d="M251.9296623171807 337.2319897430574L25.006585394103695 337.2319897430574L25.006585394103695 1351.2294594388895L334.7815602168573 1351.2294594388895L334.7815602168573 1381.2294594388895" stroke="#323232" stroke-width="2" fill="none" marker-end="url(#SvgjsMarker1312)"></path></g><g id="SvgjsG1314" transform="translate(370.1509102063302,688.6363037996323)"><path id="SvgjsPath1315" d="M 19.99999745686849 0L 160 0L 140.0000025431315 59.99999237060547L 0 59.99999237060547L 19.99999745686849 0Z" stroke="rgba(50,50,50,1)" stroke-width="2" fill-opacity="1" fill="#ffffff"></path><g id="SvgjsG1316"><text id="SvgjsText1317" font-family="微软雅黑" text-anchor="middle" font-size="13px" width="112px" fill="#323232" font-weight="400" align="middle" anchor="middle" family="微软雅黑" size="13px" weight="400" font-style="" opacity="1" y="20.049996185302735" transform="rotate(0)"><tspan id="SvgjsTspan1318" dy="16" x="80"><tspan id="SvgjsTspan1319" style="text-decoration:;">输入验证码</tspan></tspan></text></g></g><g id="SvgjsG1320" transform="translate(218.47501927438304,305.038272751617)"><path id="SvgjsPath1321" d="M 0 0L 35 0L 35 35L 0 35Z" stroke="none" fill="none"></path><g id="SvgjsG1322"><text id="SvgjsText1323" font-family="微软雅黑" text-anchor="middle" font-size="13px" width="35px" fill="#323232" font-weight="400" align="middle" anchor="middle" family="微软雅黑" size="13px" weight="400" font-style="" opacity="1" y="7.55" transform="rotate(0)"><tspan id="SvgjsTspan1324" dy="16" x="17.5"><tspan id="SvgjsTspan1325" style="text-decoration:;">是</tspan></tspan></text></g></g><g id="SvgjsG1326" transform="translate(670.9132018696381,876.6862571769775)"><path id="SvgjsPath1327" d="M 0 36.5L 79.9000015258789 0L 159.8000030517578 36.5L 79.9000015258789 73L 0 36.5Z" stroke="rgba(50,50,50,1)" stroke-width="2" fill-opacity="1" fill="#ffffff"></path><g id="SvgjsG1328"><text id="SvgjsText1329" font-family="微软雅黑" text-anchor="middle" font-size="13px" width="140px" fill="#323232" font-weight="400" align="middle" anchor="middle" family="微软雅黑" size="13px" weight="400" font-style="" opacity="1" y="26.55" transform="rotate(0)"><tspan id="SvgjsTspan1330" dy="16" x="80"><tspan id="SvgjsTspan1331" style="text-decoration:;">是否要绑定手机号？</tspan></tspan></text></g></g><g id="SvgjsG1332"><path id="SvgjsPath1333" d="M750.7815388273663 848.2173651478898L750.7815388273663 862.4518111624336L750.813203395517 862.4518111624336L750.813203395517 876.6862571769775" stroke="#323232" stroke-width="2" fill="none" marker-end="url(#SvgjsMarker1334)"></path></g><g id="SvgjsG1336"><path id="SvgjsPath1337" d="M750.813203395517 949.6862571769775L750.813203395517 964.7562112622248L750.3720992750435 964.7562112622248L750.3720992750435 979.8261653474722" stroke="#323232" stroke-width="2" fill="none" marker-end="url(#SvgjsMarker1338)"></path></g><g id="SvgjsG1340" transform="translate(754.2144151970207,944.7762470462071)"><path id="SvgjsPath1341" d="M 0 0L 35 0L 35 35L 0 35Z" stroke="none" fill="none"></path><g id="SvgjsG1342"><text id="SvgjsText1343" font-family="微软雅黑" text-anchor="middle" font-size="13px" width="35px" fill="#323232" font-weight="400" align="middle" anchor="middle" family="微软雅黑" size="13px" weight="400" font-style="" opacity="1" y="7.55" transform="rotate(0)"><tspan id="SvgjsTspan1344" dy="16" x="17.5"><tspan id="SvgjsTspan1345" style="text-decoration:;">是</tspan></tspan></text></g></g><g id="SvgjsG1346" transform="translate(824.5191777154444,418.99055004290733)"><path id="SvgjsPath1347" d="M 0 0L 35 0L 35 35L 0 35Z" stroke="none" fill="none"></path><g id="SvgjsG1348"><text id="SvgjsText1349" font-family="微软雅黑" text-anchor="middle" font-size="13px" width="35px" fill="#323232" font-weight="400" align="middle" anchor="middle" family="微软雅黑" size="13px" weight="400" font-style="" opacity="1" y="7.55" transform="rotate(0)"><tspan id="SvgjsTspan1350" dy="16" x="17.5"><tspan id="SvgjsTspan1351" style="text-decoration:;">否</tspan></tspan></text></g></g><g id="SvgjsG1352" transform="translate(670.9131964253528,415.62178032398094)"><path id="SvgjsPath1353" d="M 0 36.5L 79.9000015258789 0L 159.8000030517578 36.5L 79.9000015258789 73L 0 36.5Z" stroke="rgba(50,50,50,1)" stroke-width="2" fill-opacity="1" fill="#ffffff"></path><g id="SvgjsG1354"><text id="SvgjsText1355" font-family="微软雅黑" text-anchor="middle" font-size="13px" width="140px" fill="#323232" font-weight="400" align="middle" anchor="middle" family="微软雅黑" size="13px" weight="400" font-style="" opacity="1" y="26.55" transform="rotate(0)"><tspan id="SvgjsTspan1356" dy="16" x="80"><tspan id="SvgjsTspan1357" style="text-decoration:;">是否证件注册？</tspan></tspan></text></g></g><g id="SvgjsG1358"><path id="SvgjsPath1359" d="M411.6225720649999 451.79050367494597L541.2678842451763 451.79050367494597L541.2678842451763 452.12178032398094L670.9131964253528 452.12178032398094" stroke="#323232" stroke-width="2" fill="none" marker-end="url(#SvgjsMarker1360)"></path></g><g id="SvgjsG1362" transform="translate(750.5892637051363,482.19530471694054)"><path id="SvgjsPath1363" d="M 0 0L 35 0L 35 35L 0 35Z" stroke="none" fill="none"></path><g id="SvgjsG1364"><text id="SvgjsText1365" font-family="微软雅黑" text-anchor="middle" font-size="13px" width="35px" fill="#323232" font-weight="400" align="middle" anchor="middle" family="微软雅黑" size="13px" weight="400" font-style="" opacity="1" y="7.55" transform="rotate(0)"><tspan id="SvgjsTspan1366" dy="16" x="17.5"><tspan id="SvgjsTspan1367" style="text-decoration:;">是</tspan></tspan></text></g></g><g id="SvgjsG1368"><path id="SvgjsPath1369" d="M670.9132018696381 913.1862571769775L615.5975472017146 913.1862571769775L615.5975472017146 1294.2084459150585L670.8607050964514 1294.2084459150585" stroke="#323232" stroke-width="2" fill="none" marker-end="url(#SvgjsMarker1370)"></path></g><g id="SvgjsG1372" transform="translate(637.0003807229631,883.0911071926417)"><path id="SvgjsPath1373" d="M 0 0L 35 0L 35 35L 0 35Z" stroke="none" fill="none"></path><g id="SvgjsG1374"><text id="SvgjsText1375" font-family="微软雅黑" text-anchor="middle" font-size="13px" width="35px" fill="#323232" font-weight="400" align="middle" anchor="middle" family="微软雅黑" size="13px" weight="400" font-style="" opacity="1" y="7.55" transform="rotate(0)"><tspan id="SvgjsTspan1376" dy="16" x="17.5"><tspan id="SvgjsTspan1377" style="text-decoration:;">否</tspan></tspan></text></g></g><g id="SvgjsG1378"><path id="SvgjsPath1379" d="M830.7131994771106 452.12178032398094L860.7131994771106 452.12178032398094L860.7131994771106 1009.8261615327749L820.2721020724882 1009.8261615327749" stroke="#323232" stroke-width="2" fill="none" marker-end="url(#SvgjsMarker1380)"></path></g></svg>